<mxfile host="app.diagrams.net" modified="2021-10-06T04:28:17.437Z" agent="5.0 (Windows NT 10.0; Win64; x64) AppleWebKit/537.36 (KHTML, like Gecko) Chrome/94.0.4606.71 Safari/537.36 Edg/94.0.992.38" etag="HtiK5Qn-0Ushi82PbKVv" version="14.8.0" type="github">
  <diagram id="_RC3U6TSb8qjqsqQd0KZ" name="Page-1">
    <mxGraphModel dx="1038" dy="579" grid="1" gridSize="10" guides="1" tooltips="1" connect="1" arrows="1" fold="1" page="1" pageScale="1" pageWidth="850" pageHeight="1100" math="0" shadow="0">
      <root>
        <mxCell id="0" />
        <mxCell id="1" parent="0" />
        <mxCell id="BetARz0SCdBCXWq3lPLu-16" style="edgeStyle=orthogonalEdgeStyle;rounded=0;orthogonalLoop=1;jettySize=auto;html=1;entryX=0.5;entryY=1;entryDx=0;entryDy=0;" edge="1" parent="1" source="BetARz0SCdBCXWq3lPLu-1" target="BetARz0SCdBCXWq3lPLu-15">
          <mxGeometry relative="1" as="geometry" />
        </mxCell>
        <mxCell id="BetARz0SCdBCXWq3lPLu-1" value="Idle" style="rounded=0;whiteSpace=wrap;html=1;" vertex="1" parent="1">
          <mxGeometry x="370" y="380" width="60" height="30" as="geometry" />
        </mxCell>
        <mxCell id="BetARz0SCdBCXWq3lPLu-10" value="yes" style="edgeStyle=orthogonalEdgeStyle;rounded=0;orthogonalLoop=1;jettySize=auto;html=1;entryX=0;entryY=0.5;entryDx=0;entryDy=0;" edge="1" parent="1" source="BetARz0SCdBCXWq3lPLu-2" target="BetARz0SCdBCXWq3lPLu-8">
          <mxGeometry relative="1" as="geometry" />
        </mxCell>
        <mxCell id="BetARz0SCdBCXWq3lPLu-12" style="edgeStyle=orthogonalEdgeStyle;rounded=0;orthogonalLoop=1;jettySize=auto;html=1;" edge="1" parent="1" source="BetARz0SCdBCXWq3lPLu-2" target="BetARz0SCdBCXWq3lPLu-11">
          <mxGeometry relative="1" as="geometry" />
        </mxCell>
        <mxCell id="BetARz0SCdBCXWq3lPLu-14" value="no" style="edgeStyle=orthogonalEdgeStyle;rounded=0;orthogonalLoop=1;jettySize=auto;html=1;" edge="1" parent="1" source="BetARz0SCdBCXWq3lPLu-2" target="BetARz0SCdBCXWq3lPLu-13">
          <mxGeometry relative="1" as="geometry" />
        </mxCell>
        <mxCell id="BetARz0SCdBCXWq3lPLu-22" style="edgeStyle=orthogonalEdgeStyle;rounded=0;orthogonalLoop=1;jettySize=auto;html=1;exitX=0.5;exitY=0;exitDx=0;exitDy=0;entryX=0;entryY=0.5;entryDx=0;entryDy=0;" edge="1" parent="1" source="BetARz0SCdBCXWq3lPLu-2" target="BetARz0SCdBCXWq3lPLu-6">
          <mxGeometry relative="1" as="geometry" />
        </mxCell>
        <mxCell id="BetARz0SCdBCXWq3lPLu-33" style="edgeStyle=orthogonalEdgeStyle;rounded=0;orthogonalLoop=1;jettySize=auto;html=1;exitX=1;exitY=0.5;exitDx=0;exitDy=0;entryX=0;entryY=0.5;entryDx=0;entryDy=0;" edge="1" parent="1" source="BetARz0SCdBCXWq3lPLu-2" target="BetARz0SCdBCXWq3lPLu-32">
          <mxGeometry relative="1" as="geometry" />
        </mxCell>
        <mxCell id="BetARz0SCdBCXWq3lPLu-2" value="near" style="rhombus;whiteSpace=wrap;html=1;" vertex="1" parent="1">
          <mxGeometry x="357.5" y="200" width="85" height="50" as="geometry" />
        </mxCell>
        <mxCell id="BetARz0SCdBCXWq3lPLu-30" style="edgeStyle=orthogonalEdgeStyle;rounded=0;orthogonalLoop=1;jettySize=auto;html=1;exitX=0.5;exitY=0;exitDx=0;exitDy=0;entryX=0.5;entryY=0;entryDx=0;entryDy=0;" edge="1" parent="1" source="BetARz0SCdBCXWq3lPLu-6" target="BetARz0SCdBCXWq3lPLu-28">
          <mxGeometry relative="1" as="geometry" />
        </mxCell>
        <mxCell id="BetARz0SCdBCXWq3lPLu-6" value="Melee" style="rounded=0;whiteSpace=wrap;html=1;" vertex="1" parent="1">
          <mxGeometry x="425" y="90" width="50" height="30" as="geometry" />
        </mxCell>
        <mxCell id="BetARz0SCdBCXWq3lPLu-8" value="spin" style="rounded=0;whiteSpace=wrap;html=1;" vertex="1" parent="1">
          <mxGeometry x="425" y="120" width="50" height="30" as="geometry" />
        </mxCell>
        <mxCell id="BetARz0SCdBCXWq3lPLu-25" style="edgeStyle=orthogonalEdgeStyle;rounded=0;orthogonalLoop=1;jettySize=auto;html=1;exitX=1;exitY=0.5;exitDx=0;exitDy=0;entryX=1;entryY=0.5;entryDx=0;entryDy=0;" edge="1" parent="1" source="BetARz0SCdBCXWq3lPLu-11" target="BetARz0SCdBCXWq3lPLu-6">
          <mxGeometry relative="1" as="geometry" />
        </mxCell>
        <mxCell id="BetARz0SCdBCXWq3lPLu-27" style="edgeStyle=orthogonalEdgeStyle;rounded=0;orthogonalLoop=1;jettySize=auto;html=1;exitX=1;exitY=0.5;exitDx=0;exitDy=0;entryX=1;entryY=0.5;entryDx=0;entryDy=0;" edge="1" parent="1" source="BetARz0SCdBCXWq3lPLu-11" target="BetARz0SCdBCXWq3lPLu-8">
          <mxGeometry relative="1" as="geometry" />
        </mxCell>
        <mxCell id="BetARz0SCdBCXWq3lPLu-11" value="charge" style="rounded=0;whiteSpace=wrap;html=1;" vertex="1" parent="1">
          <mxGeometry x="520" y="240" width="50" height="30" as="geometry" />
        </mxCell>
        <mxCell id="BetARz0SCdBCXWq3lPLu-29" style="edgeStyle=orthogonalEdgeStyle;rounded=0;orthogonalLoop=1;jettySize=auto;html=1;exitX=1;exitY=0.5;exitDx=0;exitDy=0;entryX=0.5;entryY=0;entryDx=0;entryDy=0;" edge="1" parent="1" source="BetARz0SCdBCXWq3lPLu-13" target="BetARz0SCdBCXWq3lPLu-28">
          <mxGeometry relative="1" as="geometry" />
        </mxCell>
        <mxCell id="BetARz0SCdBCXWq3lPLu-13" value="shoot" style="rounded=0;whiteSpace=wrap;html=1;" vertex="1" parent="1">
          <mxGeometry x="520" y="210" width="50" height="30" as="geometry" />
        </mxCell>
        <mxCell id="BetARz0SCdBCXWq3lPLu-17" value="yes" style="edgeStyle=orthogonalEdgeStyle;rounded=0;orthogonalLoop=1;jettySize=auto;html=1;entryX=0.5;entryY=1;entryDx=0;entryDy=0;" edge="1" parent="1" source="BetARz0SCdBCXWq3lPLu-15" target="BetARz0SCdBCXWq3lPLu-2">
          <mxGeometry relative="1" as="geometry" />
        </mxCell>
        <mxCell id="BetARz0SCdBCXWq3lPLu-21" value="no" style="edgeStyle=orthogonalEdgeStyle;rounded=0;orthogonalLoop=1;jettySize=auto;html=1;exitX=1;exitY=0.5;exitDx=0;exitDy=0;entryX=1;entryY=0.5;entryDx=0;entryDy=0;" edge="1" parent="1" source="BetARz0SCdBCXWq3lPLu-15" target="BetARz0SCdBCXWq3lPLu-1">
          <mxGeometry relative="1" as="geometry" />
        </mxCell>
        <mxCell id="BetARz0SCdBCXWq3lPLu-15" value="see" style="rhombus;whiteSpace=wrap;html=1;" vertex="1" parent="1">
          <mxGeometry x="365" y="300" width="70" height="50" as="geometry" />
        </mxCell>
        <mxCell id="BetARz0SCdBCXWq3lPLu-31" value="yes" style="edgeStyle=orthogonalEdgeStyle;rounded=0;orthogonalLoop=1;jettySize=auto;html=1;exitX=0.5;exitY=1;exitDx=0;exitDy=0;entryX=1;entryY=0.5;entryDx=0;entryDy=0;" edge="1" parent="1" source="BetARz0SCdBCXWq3lPLu-28" target="BetARz0SCdBCXWq3lPLu-1">
          <mxGeometry relative="1" as="geometry" />
        </mxCell>
        <mxCell id="BetARz0SCdBCXWq3lPLu-35" value="no" style="edgeStyle=orthogonalEdgeStyle;rounded=0;orthogonalLoop=1;jettySize=auto;html=1;exitX=0;exitY=0.5;exitDx=0;exitDy=0;entryX=1;entryY=0.5;entryDx=0;entryDy=0;" edge="1" parent="1" source="BetARz0SCdBCXWq3lPLu-28" target="BetARz0SCdBCXWq3lPLu-32">
          <mxGeometry relative="1" as="geometry" />
        </mxCell>
        <mxCell id="BetARz0SCdBCXWq3lPLu-28" value="change" style="rhombus;whiteSpace=wrap;html=1;" vertex="1" parent="1">
          <mxGeometry x="630" y="270" width="70" height="40" as="geometry" />
        </mxCell>
        <mxCell id="BetARz0SCdBCXWq3lPLu-37" style="edgeStyle=orthogonalEdgeStyle;rounded=0;orthogonalLoop=1;jettySize=auto;html=1;exitX=0.5;exitY=1;exitDx=0;exitDy=0;entryX=1;entryY=0;entryDx=0;entryDy=0;" edge="1" parent="1" source="BetARz0SCdBCXWq3lPLu-32" target="BetARz0SCdBCXWq3lPLu-15">
          <mxGeometry relative="1" as="geometry" />
        </mxCell>
        <mxCell id="BetARz0SCdBCXWq3lPLu-32" value="backward" style="rounded=0;whiteSpace=wrap;html=1;" vertex="1" parent="1">
          <mxGeometry x="520" y="270" width="60" height="30" as="geometry" />
        </mxCell>
      </root>
    </mxGraphModel>
  </diagram>
</mxfile>
